<svg width="142" height="37" viewBox="0 0 142 37" fill="none" xmlns="http://www.w3.org/2000/svg">
<path d="M11.328 29.448C10.1013 29.448 8.928 29.3093 7.808 29.032C6.69867 28.7547 5.712 28.3387 4.848 27.784C3.99467 27.2187 3.31733 26.4987 2.816 25.624C2.32533 24.7387 2.08 23.6987 2.08 22.504H5.792C5.792 23.336 6.016 24.008 6.464 24.52C6.912 25.032 7.56267 25.4053 8.416 25.64C9.26933 25.8747 10.304 25.992 11.52 25.992C12.4907 25.992 13.2853 25.8747 13.904 25.64C14.5227 25.4053 14.976 25.0907 15.264 24.696C15.5627 24.2907 15.712 23.848 15.712 23.368C15.712 22.76 15.5093 22.232 15.104 21.784C14.7093 21.336 14.1333 20.9787 13.376 20.712L11.104 19.848V16.584L15.2 18.024C16.8 18.5787 17.9947 19.2827 18.784 20.136C19.5733 20.9893 19.968 22.0987 19.968 23.464C19.968 24.4667 19.6587 25.4267 19.04 26.344C18.432 27.2507 17.488 27.9973 16.208 28.584C14.9387 29.16 13.312 29.448 11.328 29.448ZM9.696 32.232V5.416H12.384V32.232H9.696ZM10.432 19.912L8.096 19.112C6.304 18.504 4.92267 17.7787 3.952 16.936C2.98133 16.0933 2.496 14.9413 2.496 13.48C2.496 11.7947 3.21067 10.4293 4.64 9.384C6.08 8.33867 8.17067 7.816 10.912 7.816C13.4613 7.816 15.3973 8.37067 16.72 9.48C18.0533 10.5787 18.88 12.072 19.2 13.96H15.456C15.296 13.1387 14.8267 12.4507 14.048 11.896C13.28 11.3307 12.2133 11.048 10.848 11.048C9.44 11.048 8.37867 11.288 7.664 11.768C6.94933 12.248 6.592 12.8613 6.592 13.608C6.592 14.1627 6.76267 14.616 7.104 14.968C7.456 15.3093 8 15.6133 8.736 15.88L10.432 16.584V19.912ZM23.5825 29V25.448C23.5825 24.2853 23.7585 23.2987 24.1105 22.488C24.4625 21.6773 24.9852 20.9947 25.6785 20.44C26.3825 19.8747 27.2625 19.3893 28.3185 18.984L32.5745 17.352C33.5025 16.9787 34.1852 16.52 34.6225 15.976C35.0705 15.432 35.2945 14.76 35.2945 13.96C35.2945 13.16 35.0012 12.488 34.4145 11.944C33.8385 11.3893 33.0118 11.112 31.9345 11.112C30.8998 11.112 30.0305 11.3733 29.3265 11.896C28.6332 12.408 28.2332 13.16 28.1265 14.152H23.9345C23.9665 12.7333 24.3345 11.5547 25.0385 10.616C25.7425 9.67733 26.6865 8.97867 27.8705 8.52C29.0545 8.05066 30.3878 7.816 31.8705 7.816C33.2678 7.816 34.5318 8.08267 35.6625 8.616C36.7932 9.13867 37.6892 9.87467 38.3505 10.824C39.0225 11.7627 39.3585 12.8613 39.3585 14.12C39.3585 15.1867 39.1612 16.1253 38.7665 16.936C38.3825 17.7467 37.7958 18.456 37.0065 19.064C36.2172 19.672 35.2198 20.2107 34.0145 20.68L29.7265 22.344C28.8945 22.664 28.2918 23.0213 27.9185 23.416C27.5452 23.8 27.3585 24.3067 27.3585 24.936V25.544H39.2305V29H23.5825ZM50.1415 29.448C48.7122 29.448 47.4268 29.1707 46.2855 28.616C45.1442 28.0507 44.2375 27.2773 43.5655 26.296C42.8935 25.304 42.5575 24.1573 42.5575 22.856H46.4935C46.5362 23.816 46.8828 24.5787 47.5335 25.144C48.1948 25.7093 49.0215 25.992 50.0135 25.992C51.1762 25.992 52.1148 25.6613 52.8295 25C53.5442 24.328 54.0615 23.3893 54.3815 22.184C54.7122 20.9787 54.8775 19.5707 54.8775 17.96C54.8775 17.64 54.8668 17.3307 54.8455 17.032C54.8348 16.7227 54.8028 16.4027 54.7495 16.072C54.5468 17.2453 54.1628 18.1947 53.5975 18.92C53.0322 19.6347 52.3442 20.1573 51.5335 20.488C50.7335 20.808 49.8642 20.968 48.9255 20.968C47.6348 20.968 46.4935 20.6907 45.5015 20.136C44.5202 19.5707 43.7468 18.7973 43.1815 17.816C42.6162 16.824 42.3335 15.688 42.3335 14.408C42.3335 13.0853 42.6482 11.928 43.2775 10.936C43.9175 9.944 44.7975 9.176 45.9175 8.632C47.0482 8.088 48.3495 7.816 49.8215 7.816C51.0588 7.816 52.2108 8.06667 53.2775 8.568C54.3548 9.06933 55.2935 9.784 56.0935 10.712C56.8935 11.6293 57.5175 12.728 57.9655 14.008C58.4242 15.288 58.6535 16.712 58.6535 18.28C58.6535 20.552 58.3388 22.5253 57.7095 24.2C57.0802 25.8747 56.1362 27.1707 54.8775 28.088C53.6188 28.9947 52.0402 29.448 50.1415 29.448ZM49.8535 17.864C50.5042 17.864 51.1015 17.7253 51.6455 17.448C52.2002 17.1707 52.6428 16.7867 52.9735 16.296C53.3042 15.8053 53.4695 15.24 53.4695 14.6C53.4695 13.576 53.1068 12.7653 52.3815 12.168C51.6668 11.5707 50.8135 11.272 49.8215 11.272C48.8295 11.272 47.9815 11.5707 47.2775 12.168C46.5842 12.7653 46.2375 13.576 46.2375 14.6C46.2375 15.624 46.5895 16.424 47.2935 17C47.9975 17.576 48.8508 17.864 49.8535 17.864Z" fill="white"/>
<path opacity="0.5" d="M74.088 23.692C73.528 23.692 73.04 23.564 72.624 23.308C72.2133 23.052 71.896 22.6787 71.672 22.188C71.448 21.692 71.336 21.0893 71.336 20.38H71.864C71.864 20.8547 71.9627 21.2547 72.16 21.58C72.3573 21.9053 72.6133 22.1533 72.928 22.324C73.248 22.4893 73.5867 22.572 73.944 22.572C74.328 22.572 74.696 22.4627 75.048 22.244C75.4 22.02 75.688 21.692 75.912 21.26C76.136 20.828 76.248 20.2947 76.248 19.66C76.248 19.052 76.144 18.532 75.936 18.1C75.7333 17.668 75.4587 17.3373 75.112 17.108C74.7653 16.8787 74.3813 16.764 73.96 16.764C73.5973 16.764 73.256 16.852 72.936 17.028C72.616 17.204 72.3573 17.4627 72.16 17.804C71.9627 18.14 71.864 18.556 71.864 19.052H71.336C71.336 18.3107 71.4587 17.6893 71.704 17.188C71.9493 16.6813 72.2827 16.3 72.704 16.044C73.1253 15.788 73.5973 15.66 74.12 15.66C74.7173 15.66 75.2747 15.82 75.792 16.14C76.3093 16.46 76.728 16.9187 77.048 17.516C77.368 18.1133 77.528 18.828 77.528 19.66C77.528 20.5027 77.3653 21.2253 77.04 21.828C76.72 22.4307 76.2987 22.892 75.776 23.212C75.2533 23.532 74.6907 23.692 74.088 23.692ZM70.616 27.26V15.852H71.656L71.864 17.644V27.26H70.616ZM82.1314 23.692C81.47 23.692 80.878 23.524 80.3554 23.188C79.838 22.8467 79.4274 22.3747 79.1234 21.772C78.8247 21.1693 78.6754 20.476 78.6754 19.692C78.6754 18.8547 78.8247 18.1347 79.1234 17.532C79.422 16.9293 79.83 16.468 80.3474 16.148C80.87 15.8227 81.4647 15.66 82.1314 15.66C82.7127 15.66 83.2087 15.7773 83.6194 16.012C84.03 16.2467 84.3607 16.564 84.6114 16.964C84.862 17.364 85.0354 17.8173 85.1314 18.324C85.2327 18.8253 85.262 19.3453 85.2194 19.884H79.6834V19.116H84.3954L84.0274 19.356C84.0434 19.0413 84.0247 18.7267 83.9714 18.412C83.9234 18.0973 83.83 17.8093 83.6914 17.548C83.5527 17.2813 83.358 17.068 83.1074 16.908C82.8567 16.748 82.5367 16.668 82.1474 16.668C81.6567 16.668 81.246 16.7933 80.9154 17.044C80.5847 17.2947 80.3367 17.6253 80.1714 18.036C80.006 18.4413 79.9234 18.8813 79.9234 19.356V19.868C79.9234 20.4013 80.0034 20.8787 80.1634 21.3C80.3287 21.7213 80.574 22.0547 80.8994 22.3C81.2247 22.5453 81.6354 22.668 82.1314 22.668C82.6274 22.668 83.0354 22.548 83.3554 22.308C83.6754 22.068 83.87 21.7133 83.9394 21.244H85.2354C85.1554 21.7507 84.974 22.188 84.6914 22.556C84.4087 22.9187 84.0487 23.1987 83.6114 23.396C83.174 23.5933 82.6807 23.692 82.1314 23.692ZM87.1941 23.5V15.836H88.4421V23.5H87.1941ZM88.0581 20.044C88.0581 19.0733 88.1515 18.268 88.3381 17.628C88.5248 16.9827 88.7968 16.5027 89.1541 16.188C89.5168 15.868 89.9568 15.708 90.4741 15.708C90.6448 15.708 90.7995 15.7213 90.9381 15.748C91.0821 15.7693 91.2261 15.804 91.3701 15.852L91.2901 17.084C91.1408 17.036 90.9781 16.996 90.8021 16.964C90.6261 16.9267 90.4688 16.908 90.3301 16.908C89.8768 16.908 89.5115 17.0387 89.2341 17.3C88.9568 17.556 88.7541 17.9187 88.6261 18.388C88.5035 18.8573 88.4421 19.4093 88.4421 20.044H88.0581ZM106.524 23.5V19.004C106.524 18.2733 106.348 17.7187 105.996 17.34C105.65 16.956 105.18 16.764 104.588 16.764C103.895 16.764 103.364 17.0333 102.996 17.572C102.628 18.1053 102.444 18.844 102.444 19.788H101.868C101.868 19.1 101.935 18.4973 102.068 17.98C102.207 17.4627 102.407 17.0333 102.668 16.692C102.93 16.3453 103.247 16.0867 103.62 15.916C103.994 15.7453 104.418 15.66 104.892 15.66C105.495 15.66 106.01 15.796 106.436 16.068C106.868 16.3347 107.199 16.7187 107.428 17.22C107.658 17.7213 107.772 18.316 107.772 19.004V23.5H106.524ZM95.7723 23.5V15.852H96.8443L96.9883 17.388C97.2283 16.8333 97.5643 16.4067 97.9963 16.108C98.4336 15.8093 98.9563 15.66 99.5643 15.66C100.167 15.66 100.682 15.796 101.108 16.068C101.54 16.3347 101.871 16.7187 102.1 17.22C102.33 17.7213 102.444 18.316 102.444 19.004V23.5H101.212V19.004C101.212 18.2733 101.036 17.7187 100.684 17.34C100.338 16.956 99.8629 16.764 99.2603 16.764C98.8016 16.764 98.4043 16.8893 98.0683 17.14C97.7323 17.3907 97.4736 17.7507 97.2923 18.22C97.1109 18.684 97.0203 19.2387 97.0203 19.884V23.5H95.7723ZM113.009 23.692C112.321 23.692 111.708 23.54 111.169 23.236C110.636 22.932 110.214 22.4813 109.905 21.884C109.596 21.2867 109.441 20.5507 109.441 19.676C109.441 18.796 109.596 18.06 109.905 17.468C110.214 16.8707 110.636 16.42 111.169 16.116C111.708 15.812 112.321 15.66 113.009 15.66C113.692 15.66 114.3 15.812 114.833 16.116C115.372 16.42 115.793 16.8707 116.097 17.468C116.406 18.06 116.561 18.796 116.561 19.676C116.561 20.5507 116.406 21.2867 116.097 21.884C115.793 22.4813 115.372 22.932 114.833 23.236C114.3 23.54 113.692 23.692 113.009 23.692ZM112.977 22.604C113.473 22.604 113.894 22.4867 114.241 22.252C114.588 22.012 114.849 21.6733 115.025 21.236C115.206 20.7987 115.297 20.2787 115.297 19.676C115.297 18.764 115.108 18.0467 114.729 17.524C114.35 16.996 113.788 16.732 113.041 16.732C112.54 16.732 112.116 16.852 111.769 17.092C111.428 17.3267 111.166 17.6653 110.985 18.108C110.809 18.5453 110.721 19.068 110.721 19.676C110.721 20.5773 110.91 21.292 111.289 21.82C111.673 22.3427 112.236 22.604 112.977 22.604ZM123.931 23.5V19.004C123.931 18.2733 123.755 17.7187 123.403 17.34C123.056 16.956 122.582 16.764 121.979 16.764C121.52 16.764 121.123 16.8893 120.787 17.14C120.451 17.3907 120.192 17.7507 120.011 18.22C119.83 18.684 119.739 19.2387 119.739 19.884H119.259C119.259 18.9933 119.376 18.2333 119.611 17.604C119.846 16.9747 120.187 16.4947 120.635 16.164C121.088 15.828 121.638 15.66 122.283 15.66C122.886 15.66 123.4 15.796 123.827 16.068C124.259 16.3347 124.59 16.7187 124.819 17.22C125.048 17.7213 125.163 18.316 125.163 19.004V23.5H123.931ZM118.491 23.5V15.852H119.563L119.739 17.612V23.5H118.491ZM129.999 23.692C129.583 23.692 129.21 23.612 128.879 23.452C128.549 23.292 128.287 23.052 128.095 22.732C127.903 22.412 127.807 22.012 127.807 21.532V13.724H129.039V21.5C129.039 22.2893 129.407 22.684 130.143 22.684C130.362 22.684 130.573 22.66 130.775 22.612C130.983 22.564 131.215 22.492 131.471 22.396L131.647 23.292C131.375 23.4093 131.103 23.5053 130.831 23.58C130.565 23.6547 130.287 23.692 129.999 23.692ZM126.575 16.716V15.852H131.455V16.716H126.575ZM138.603 23.5V19.004C138.603 18.2733 138.427 17.7187 138.075 17.34C137.728 16.956 137.254 16.764 136.651 16.764C136.192 16.764 135.795 16.8893 135.459 17.14C135.123 17.3907 134.864 17.7507 134.683 18.22C134.502 18.684 134.411 19.2387 134.411 19.884H133.931C133.931 18.9933 134.048 18.2333 134.283 17.604C134.518 16.9747 134.859 16.4947 135.307 16.164C135.76 15.828 136.31 15.66 136.955 15.66C137.558 15.66 138.072 15.796 138.499 16.068C138.931 16.3347 139.262 16.7187 139.491 17.22C139.72 17.7213 139.835 18.316 139.835 19.004V23.5H138.603ZM133.163 23.5V12.588H134.411V23.5H133.163Z" fill="white"/>
</svg>
